# xmcd CD database file
# Copyright (C) 1993-1998 Ti Kan
# 
# Track frame offsets:
#     182
#     16722
#     34642
# 
# Disc length: 647 seconds
# 
# Revision: 1
# Processed by: cddbd v1.4b41PL1 Copyright (c) Steve Scherf et al.
# Submitted via: DiscPlay 4.0.4
# 
DISCID=13028503
DTITLE=Vaya con Dios - Time Flies
DYEAR=1900
DGENRE=
TTITLE0=Time Flies
TTITLE1=Forever Blue
TTITLE2=Pack Your Memories
EXTD=
EXTT0=
EXTT1=
EXTT2=
PLAYORDER=
